<svg width="300" height="300" viewBox="0 0 300 300" fill="none" xmlns="http://www.w3.org/2000/svg">
<g clip-path="url(#clip0_134_363)">
<path d="M30.6893 58.2328C31.2893 58.804 32.2388 58.7806 32.81 58.1806C33.3811 57.5806 33.3578 56.6311 32.7577 56.0599L30.6893 58.2328ZM2.00074 28.8522L0.988117 27.7456C0.681385 28.0263 0.504912 28.4217 0.500817 28.8375C0.496722 29.2532 0.665372 29.652 0.966516 29.9387L2.00074 28.8522ZM32.7577 56.0599L3.03497 27.7658L0.966516 29.9387L30.6893 58.2328L32.7577 56.0599ZM3.01337 29.9588L33.2877 2.25569L31.2625 0.0424721L0.988117 27.7456L3.01337 29.9588Z" fill="white"/>
<path d="M63.4709 -0.0885283C62.8698 -0.658508 61.9204 -0.633217 61.3504 -0.0320399C60.7804 0.569138 60.8057 1.51855 61.4069 2.08853L63.4709 -0.0885283ZM92.2186 29.2343L93.2334 30.3388C93.5396 30.0575 93.7152 29.6618 93.7185 29.246C93.7218 28.8302 93.5523 28.4318 93.2506 28.1457L92.2186 29.2343ZM61.4069 2.08853L91.1865 30.3228L93.2506 28.1457L63.4709 -0.0885283L61.4069 2.08853ZM91.2037 28.1297L60.9852 55.8937L63.0149 58.1028L93.2334 30.3388L91.2037 28.1297Z" fill="white"/>
<circle cx="8" cy="67" r="8" fill="white"/>
<path d="M40 67C40 70.3137 37.3137 73 34 73C30.6863 73 28 70.3137 28 67C28 63.6863 30.6863 61 34 61C37.3137 61 40 63.6863 40 67Z" stroke="white" stroke-width="4"/>
<path d="M66 67L52.5 74.7942L52.5 59.2058L66 67Z" fill="#FFFEFE"/>
<rect x="77" y="60" width="6" height="16" fill="white"/>
<rect x="85" y="60" width="6" height="16" fill="white"/>
</g>
<defs>
<clipPath id="clip0_134_363">
<rect width="300" height="300" fill="white"/>
</clipPath>
</defs>
</svg>
