<svg width="300" height="300" viewBox="0 0 300 300" fill="none" xmlns="http://www.w3.org/2000/svg">
<rect width="60" height="60" rx="30" fill="#FBFFC7"/>
<path d="M28.0072 15.0372C20.8347 15.0372 15 20.8718 15 28.0444C15 35.217 20.8347 41.0516 28.0072 41.0516C30.1999 41.0516 32.3554 40.5314 34.1764 39.5279C34.3223 39.7035 34.484 39.8652 34.6595 40.0111L38.3759 43.7274C38.719 44.1136 39.1375 44.4255 39.6056 44.644C40.0736 44.8626 40.5814 44.9832 41.0978 44.9984C41.6141 45.0136 42.1282 44.9231 42.6083 44.7324C43.0884 44.5418 43.5245 44.255 43.8897 43.8897C44.255 43.5245 44.5418 43.0884 44.7324 42.6083C44.9231 42.1282 45.0136 41.6141 44.9984 41.0978C44.9832 40.5814 44.8626 40.0736 44.644 39.6056C44.4255 39.1375 44.1136 38.719 43.7274 38.3759L40.0111 34.6595C39.83 34.4784 39.6308 34.3165 39.4165 34.1764C40.4199 32.3554 41.0516 30.2371 41.0516 28.0072C41.0516 20.8347 35.217 15 28.0444 15L28.0072 15.0372ZM28.0072 18.7535C33.173 18.7535 37.2981 22.8787 37.2981 28.0444C37.2981 30.4972 36.4062 32.7642 34.8453 34.4365C34.8082 34.4737 34.771 34.5109 34.7338 34.548C34.5583 34.6939 34.3966 34.8556 34.2507 35.0312C32.6155 36.5177 30.3857 37.3725 27.9701 37.3725C22.8043 37.3725 18.6792 33.2473 18.6792 28.0816C18.6792 22.9158 22.8043 18.7907 27.9701 18.7907L28.0072 18.7535Z" fill="black"/>
<rect x="60" width="60" height="60" rx="30" fill="#AEB6FF"/>
<path d="M76.2774 15.0076C75.8894 15.1381 75.5547 15.3919 75.3245 15.7305C75.0943 16.069 74.9812 16.4736 75.0025 16.8824V35.6309C75.0025 36.1281 75.2001 36.605 75.5517 36.9566C75.9033 37.3082 76.3802 37.5057 76.8774 37.5057H86.2516V41.2554H82.5019C80.4396 41.2554 78.7522 42.9427 78.7522 45.0051H101.25C101.25 42.9427 99.563 41.2554 97.5006 41.2554H93.751V37.5057H103.125C103.622 37.5057 104.099 37.3082 104.451 36.9566C104.802 36.605 105 36.1281 105 35.6309V16.8824C105 16.3852 104.802 15.9083 104.451 15.5567C104.099 15.2051 103.622 15.0076 103.125 15.0076L76.8774 15.0076C76.7651 14.9975 76.6522 14.9975 76.5399 15.0076C76.465 15.0031 76.3899 15.0031 76.3149 15.0076L76.2774 15.0076ZM78.7522 18.7573H101.25V33.756H78.7522V18.7573Z" fill="black"/>
<rect x="120" width="60" height="60" rx="30" fill="#811C1C" fill-opacity="0.2"/>
<path d="M136.138 15C135.479 15 135 15.2996 135 15.7116V44.2884C135 44.7004 135.479 45 136.138 45H163.862C164.521 45 165 44.7004 165 44.2884V15.7116C165 15.2996 164.521 15 163.862 15L136.138 15ZM140.988 18.7453H158.952V37.4719H140.988V18.7453ZM149.97 39.3446C151.647 39.3446 152.964 40.1685 152.964 41.2172C152.964 42.2659 151.647 43.0899 149.97 43.0899C148.293 43.0899 146.976 42.2659 146.976 41.2172C146.976 40.1685 148.293 39.3446 149.97 39.3446Z" fill="black"/>
<rect x="180" width="60" height="60" rx="30" fill="#EF62D9" fill-opacity="0.2"/>
<path d="M195 15V30H210V15H195ZM213.75 22.5V33.75H202.5V37.5H217.5V22.5H213.75ZM221.25 30V41.25H210V45H225V30H221.25Z" fill="black"/>
<rect x="240" width="60" height="60" rx="30" fill="#B2F1FA"/>
<path d="M256.277 15.0076C255.889 15.1381 255.555 15.3919 255.324 15.7305C255.094 16.069 254.981 16.4736 255.003 16.8824V43.1302C255.003 43.6275 255.2 44.1043 255.552 44.4559C255.903 44.8075 256.38 45.0051 256.877 45.0051H283.125C283.622 45.0051 284.099 44.8075 284.451 44.4559C284.802 44.1043 285 43.6275 285 43.1302V16.8824C285 16.3852 284.802 15.9083 284.451 15.5567C284.099 15.2051 283.622 15.0076 283.125 15.0076L256.877 15.0076C256.765 14.9975 256.652 14.9975 256.54 15.0076C256.465 15.0031 256.39 15.0031 256.315 15.0076L256.277 15.0076ZM260.627 18.7573C261.677 18.7573 262.502 19.5822 262.502 20.6321C262.502 21.682 261.677 22.507 260.627 22.507C259.577 22.507 258.752 21.682 258.752 20.6321C258.752 19.5822 259.577 18.7573 260.627 18.7573ZM268.126 18.7573H279.375C280.425 18.7573 281.25 19.5822 281.25 20.6321C281.25 21.682 280.425 22.507 279.375 22.507H268.126C267.077 22.507 266.252 21.682 266.252 20.6321C266.252 19.5822 267.077 18.7573 268.126 18.7573ZM258.752 26.2567H281.25V41.2554H258.752V26.2567Z" fill="black"/>
<rect y="60" width="60" height="60" rx="30" fill="#40B160" fill-opacity="0.2"/>
<path d="M30 75C21.75 75 15 81.75 15 90C15 98.25 21.75 105 30 105C38.25 105 45 98.25 45 90C45 81.75 38.25 75 30 75ZM30 78.75C36.225 78.75 41.25 83.775 41.25 90C41.25 96.225 36.225 101.25 30 101.25C23.775 101.25 18.75 96.225 18.75 90C18.75 83.775 23.775 78.75 30 78.75ZM30 82.5C28.95 82.5 28.125 83.325 28.125 84.375C28.125 85.425 28.95 86.25 30 86.25C31.05 86.25 31.875 85.425 31.875 84.375C31.875 83.325 31.05 82.5 30 82.5ZM23.775 86.25C23.4645 86.3497 23.1854 86.5286 22.9652 86.7692C22.745 87.0097 22.5913 87.3035 22.5194 87.6216C22.4475 87.9396 22.4597 88.271 22.555 88.5829C22.6502 88.8947 22.8251 89.1764 23.0625 89.4L26.475 92.8125C26.4 93.1125 26.25 93.4125 26.25 93.75C26.25 95.8125 27.9375 97.5 30 97.5C32.0625 97.5 33.75 95.8125 33.75 93.75C33.75 91.6875 32.0625 90 30 90C29.6625 90 29.3625 90.15 29.0625 90.225L25.65 86.8125C25.4448 86.5854 25.1872 86.412 24.8996 86.3074C24.612 86.2029 24.3031 86.1703 24 86.2125C23.9251 86.208 23.8499 86.208 23.775 86.2125V86.25ZM35.625 86.25C34.575 86.25 33.75 87.075 33.75 88.125C33.75 89.175 34.575 90 35.625 90C36.675 90 37.5 89.175 37.5 88.125C37.5 87.075 36.675 86.25 35.625 86.25Z" fill="black"/>
</svg>
